<?xml version="1.0" standalone="no"?>
<!DOCTYPE svg PUBLIC "-//W3C//DTD SVG 20010904//EN"
 "http://www.w3.org/TR/2001/REC-SVG-20010904/DTD/svg10.dtd">
<svg version="1.0" xmlns="http://www.w3.org/2000/svg"
 width="4351.000000pt" height="4126.000000pt" viewBox="0 0 4351.000000 4126.000000"
 preserveAspectRatio="xMidYMid meet">

<g transform="translate(0.000000,4126.000000) scale(0.100000,-0.100000)"
fill="#000000" stroke="none">
<path d="M17580 37359 c-460 -9 -3213 -40 -3520 -40 -280 0 -1348 -18 -1390
-24 -19 -3 -116 -9 -215 -15 -339 -17 -799 -92 -1145 -186 -194 -53 -430 -127
-570 -179 -164 -62 -210 -80 -306 -120 -696 -296 -1262 -665 -1865 -1211 -393
-357 -855 -941 -1147 -1451 -373 -650 -672 -1497 -757 -2148 -8 -60 -19 -144
-25 -185 -29 -213 -39 -338 -45 -577 -4 -145 -11 -263 -16 -263 -5 0 -9 -16
-9 -36 0 -19 4 -33 9 -30 4 3 11 -15 14 -39 14 -100 97 -207 197 -254 l55 -26
1004 -3 c1106 -3 1065 -5 1157 59 100 69 142 153 155 312 5 62 14 170 19 242
6 71 15 148 20 170 13 62 28 143 41 220 21 130 100 387 181 590 252 626 680
1184 1213 1578 412 305 794 484 1310 617 196 50 400 79 665 92 257 14 216 14
725 5 226 -4 883 -12 1460 -17 886 -9 1867 -19 4070 -44 187 -2 399 -9 470
-15 72 -6 216 -15 322 -21 105 -5 231 -17 280 -25 111 -20 158 -28 365 -59
196 -30 225 -36 383 -81 66 -19 190 -52 275 -73 85 -22 189 -52 230 -66 41
-15 118 -42 170 -61 1312 -461 2456 -1350 3262 -2535 586 -861 974 -1866 1107
-2865 36 -270 45 -438 46 -840 0 -503 -20 -752 -97 -1205 -126 -749 -425
-1564 -810 -2210 -538 -902 -1359 -1733 -2253 -2282 -377 -231 -711 -396
-1120 -553 -311 -120 -325 -124 -590 -195 -314 -84 -446 -112 -715 -153 -402
-62 -357 -58 -995 -87 -339 -16 -588 -38 -670 -60 -16 -4 -66 -16 -110 -25
-378 -82 -733 -231 -1060 -444 -508 -331 -937 -850 -1178 -1426 -174 -415
-251 -798 -251 -1250 -1 -428 67 -784 224 -1180 67 -167 103 -241 188 -385
149 -250 194 -312 378 -525 98 -114 956 -974 1810 -1815 153 -152 468 -462
699 -690 231 -228 730 -721 1109 -1095 380 -374 911 -898 1180 -1165 270 -267
646 -638 836 -825 190 -187 566 -558 835 -825 270 -267 801 -791 1180 -1165
380 -373 861 -849 1070 -1057 950 -943 1201 -1175 1460 -1345 304 -200 507
-307 816 -431 339 -135 597 -199 1029 -254 128 -16 663 -16 805 0 629 72 1204
265 1715 575 853 519 1468 1310 1753 2257 30 97 88 349 127 545 24 120 34 343
37 829 2 368 0 522 -8 532 -6 7 -8 17 -5 22 3 5 1 146 -4 313 -5 167 -10 372
-10 454 0 83 -5 265 -10 405 -5 140 -14 489 -20 775 -6 286 -13 590 -15 675
-14 521 -28 952 -45 1450 -11 311 -26 781 -35 1045 -15 470 -35 1046 -55 1615
-6 157 -12 350 -15 430 -6 166 -23 582 -30 745 -5 112 -17 431 -35 920 -5 149
-14 374 -19 500 -6 127 -15 358 -21 515 -6 157 -13 326 -15 375 -3 50 -9 200
-15 335 -5 135 -14 346 -19 470 -6 124 -15 353 -21 510 -5 157 -15 368 -20
470 -9 171 -23 496 -35 850 -3 80 -7 183 -10 230 -3 47 -10 207 -16 355 -6
149 -12 308 -14 355 -2 47 -9 202 -15 345 -9 241 -25 624 -50 1240 -6 138 -12
304 -15 370 -6 143 -29 729 -50 1235 -8 201 -17 439 -20 530 -3 91 -10 269
-15 395 -5 127 -12 309 -15 405 -3 96 -10 292 -15 435 -5 143 -12 337 -15 430
-3 94 -12 357 -20 585 -24 663 -44 1276 -55 1685 -6 209 -15 497 -20 640 -10
266 -26 844 -35 1265 -14 589 -34 813 -101 1086 -153 630 -576 1211 -1189
1635 -317 220 -791 417 -1210 505 -147 30 -168 34 -173 30 -6 -7 -8 -1296 -2
-1306 3 -4 39 1 80 11 157 41 389 24 580 -42 445 -154 783 -576 879 -1099 15
-77 33 -336 27 -368 -3 -15 -8 -112 -10 -217 -3 -104 -10 -363 -16 -575 -6
-212 -17 -608 -25 -880 -9 -272 -17 -571 -20 -665 -8 -287 -16 -515 -20 -623
-3 -57 -10 -253 -15 -435 -6 -183 -14 -440 -20 -572 -5 -132 -12 -352 -16
-490 -3 -137 -8 -252 -10 -256 -1 -3 -3 -72 -4 -155 -1 -82 -6 -219 -11 -304
-5 -85 -13 -310 -19 -500 -6 -190 -15 -453 -21 -585 -5 -132 -14 -366 -19
-520 -5 -154 -17 -433 -25 -620 -8 -187 -21 -513 -30 -725 -9 -212 -22 -545
-30 -740 -9 -195 -18 -413 -20 -485 -3 -71 -10 -233 -15 -360 -5 -126 -14
-354 -20 -505 -10 -272 -15 -385 -25 -570 -2 -52 -9 -221 -15 -375 -6 -154
-15 -377 -20 -495 -5 -118 -12 -276 -15 -350 -12 -303 -26 -641 -30 -730 -3
-52 -10 -207 -15 -345 -5 -137 -14 -353 -19 -480 -6 -126 -15 -360 -21 -520
-5 -159 -15 -378 -20 -485 -5 -107 -14 -323 -20 -480 -10 -284 -31 -843 -50
-1332 -25 -648 -31 -800 -45 -1203 -36 -1024 -57 -1646 -80 -2395 -3 -80 -9
-282 -15 -450 -5 -168 -12 -395 -14 -505 -3 -110 -10 -384 -16 -610 -5 -225
-17 -702 -25 -1060 -47 -2043 -45 -2015 -87 -2183 -40 -165 -101 -295 -194
-417 -170 -225 -420 -378 -716 -441 -177 -38 -451 -16 -593 46 -11 5 -46 21
-78 34 -121 52 -221 131 -438 344 -117 114 -671 673 -1232 1242 -561 569
-1241 1258 -1512 1530 -270 272 -948 959 -1505 1525 -558 567 -1232 1250
-1499 1520 -268 269 -641 647 -831 840 -389 395 -935 948 -1175 1191 -88 89
-462 465 -831 836 -369 370 -676 682 -682 693 -5 11 -8 33 -5 49 9 46 43 53
293 60 506 14 676 25 1085 72 72 8 153 19 180 24 28 4 82 13 120 19 324 51
735 140 1045 228 117 33 384 114 440 133 14 5 72 25 130 45 1181 412 2260
1032 3200 1839 1299 1117 2266 2535 2823 4141 75 217 88 258 152 480 101 349
154 574 235 1000 63 334 104 669 136 1120 19 267 22 1033 5 1270 -33 455 -51
606 -130 1090 -39 239 -126 607 -217 925 -169 585 -374 1116 -635 1641 -113
227 -271 518 -358 658 -28 45 -51 84 -51 87 0 2 -54 87 -119 188 -756 1172
-1719 2143 -2874 2900 -164 108 -452 286 -462 286 -2 0 -42 22 -87 48 -208
122 -572 304 -838 419 -58 25 -123 53 -145 63 -170 75 -809 303 -980 350 -233
64 -864 216 -975 235 -414 69 -850 125 -1060 135 -118 6 -287 15 -375 20 -180
12 -1374 10 -2005 -1z"/>
<path d="M14180 32494 c-275 -34 -558 -168 -762 -362 -185 -177 -314 -388
-373 -612 -50 -186 -46 47 -57 -3695 -8 -2707 -8 -3526 2 -3614 47 -453 325
-852 734 -1054 378 -187 807 -196 1171 -23 87 41 490 268 510 287 10 10 -10
54 -73 158 -18 30 -31 60 -28 67 3 7 67 47 143 90 76 42 159 90 186 105 26 16
53 29 60 29 7 0 37 -45 67 -100 58 -105 70 -114 111 -81 l22 18 -56 102 c-31
55 -57 105 -57 109 1 8 386 228 398 226 4 -1 32 -45 62 -98 41 -72 60 -96 75
-96 22 1 55 22 55 36 0 5 -25 51 -55 103 -30 51 -55 96 -55 100 0 3 88 57 197
118 153 88 199 110 210 101 7 -6 34 -48 59 -94 25 -46 50 -87 56 -90 12 -8 58
15 58 29 0 5 -25 51 -55 103 -31 52 -53 98 -50 103 3 5 36 26 73 47 37 20 122
68 190 106 67 39 129 68 137 64 8 -3 30 -36 49 -73 18 -37 43 -79 54 -93 18
-23 22 -23 46 -11 14 8 26 18 26 23 0 5 -25 51 -55 103 -30 51 -55 95 -55 98
0 3 28 21 63 40 34 18 122 68 196 110 73 42 137 77 142 77 4 0 32 -43 61 -95
54 -96 67 -107 102 -80 18 13 16 19 -38 116 -31 56 -56 108 -56 115 0 14 43
40 258 161 73 41 136 72 141 69 5 -3 34 -51 65 -106 32 -55 63 -100 69 -100 7
0 24 8 39 18 l26 17 -60 107 c-33 59 -57 112 -53 117 3 6 52 36 108 67 56 31
140 79 187 105 47 27 90 49 95 49 6 0 37 -48 69 -105 33 -58 61 -105 64 -105
2 0 17 8 33 17 34 20 36 35 11 71 -10 15 -35 58 -56 97 l-38 69 23 19 c13 11
44 30 69 42 25 13 103 57 175 98 71 41 133 73 136 71 4 -2 32 -49 64 -104 31
-55 62 -100 69 -100 14 1 46 25 46 34 0 4 -25 53 -56 108 -30 55 -52 104 -47
108 13 13 384 220 393 220 5 0 29 -37 54 -82 67 -123 69 -125 100 -109 14 8
26 19 26 25 0 6 -25 53 -55 105 -30 51 -55 96 -55 100 0 3 44 31 98 60 53 30
141 81 195 113 55 32 102 58 106 58 4 0 28 -37 54 -82 68 -122 68 -122 100
-107 15 7 27 16 27 20 0 10 -67 135 -92 171 -22 32 -19 41 20 61 15 8 100 56
190 106 90 51 169 90 176 88 8 -3 35 -44 61 -92 26 -47 52 -88 59 -91 7 -3
127 61 267 142 139 81 283 164 319 184 289 162 395 230 472 302 143 135 236
298 285 500 14 55 18 112 17 228 0 134 -4 168 -27 252 -46 171 -148 342 -276
461 -84 77 -129 106 -466 302 -159 92 -342 198 -405 235 -63 37 -191 112 -285
165 -192 111 -371 215 -690 400 -121 70 -278 161 -350 202 -71 42 -182 106
-245 143 -63 37 -455 265 -870 505 -415 241 -894 519 -1065 618 -170 99 -380
220 -465 270 -161 92 -374 217 -470 272 -30 18 -113 66 -185 107 -71 41 -170
99 -220 128 -82 47 -266 154 -405 235 -30 17 -100 58 -155 90 -433 252 -500
284 -676 330 -89 23 -129 27 -279 30 -96 2 -191 1 -210 -1z m3276 -2816 c38
-68 70 -127 72 -133 1 -5 -35 -31 -80 -56 -46 -26 -134 -77 -197 -113 -62 -36
-116 -66 -120 -66 -11 1 -152 254 -147 265 2 6 71 49 153 95 81 45 164 93 183
106 19 12 42 23 51 23 10 1 41 -44 85 -121z m193 -344 c39 -69 71 -131 71
-138 0 -19 -382 -230 -398 -220 -7 5 -44 63 -82 129 -52 91 -66 123 -57 131 7
7 86 53 177 104 91 51 174 99 185 106 11 8 23 14 26 14 4 0 39 -57 78 -126z
m199 -349 c40 -70 70 -131 65 -136 -22 -21 -386 -220 -396 -216 -16 6 -150
244 -145 257 4 13 380 229 392 226 6 -1 43 -60 84 -131z m182 -323 c36 -64 66
-124 68 -132 2 -10 -59 -50 -186 -122 -104 -60 -195 -108 -203 -108 -13 0
-155 240 -153 257 2 11 376 223 394 223 9 0 42 -48 80 -118z m691 -122 c57
-100 67 -126 57 -136 -7 -7 -69 -44 -138 -82 -69 -38 -152 -85 -185 -105 -33
-19 -63 -33 -67 -31 -9 6 -148 251 -148 261 0 4 39 30 88 57 48 27 137 78 197
112 61 35 114 59 118 55 4 -4 39 -63 78 -131z m-1162 -147 c39 -70 69 -133 67
-139 -3 -7 -35 -29 -73 -50 -37 -20 -121 -68 -186 -106 -65 -37 -124 -68 -130
-68 -7 1 -44 58 -84 128 -57 102 -69 130 -59 140 16 16 367 219 382 221 7 0
44 -56 83 -126z m-2468 -90 c59 -104 68 -128 57 -138 -20 -19 -369 -215 -383
-215 -6 0 -44 57 -84 126 -60 105 -70 129 -59 140 21 21 382 222 390 218 4 -3
39 -61 79 -131z m3076 110 c11 -16 46 -75 78 -132 56 -99 58 -104 40 -118 -33
-23 -373 -213 -383 -213 -5 0 -35 46 -66 103 -31 56 -64 115 -74 130 -15 25
-15 29 -2 37 57 35 376 218 382 219 4 1 15 -11 25 -26z m671 -85 c6 -7 40 -65
75 -128 51 -89 63 -118 54 -127 -29 -28 -389 -225 -397 -216 -15 17 -140 246
-140 257 0 11 365 223 386 225 6 1 16 -5 22 -11z m-1107 -235 c57 -104 75
-136 90 -161 7 -12 11 -23 9 -25 -19 -16 -391 -227 -400 -227 -3 0 -38 59 -79
132 l-73 131 23 18 c13 10 35 24 49 31 14 7 90 50 170 95 80 46 150 83 157 83
6 0 30 -35 54 -77z m688 -120 c39 -70 70 -131 68 -137 -5 -12 -379 -226 -393
-226 -15 1 -157 261 -148 269 5 5 88 52 184 106 96 53 179 101 185 106 20 20
34 4 104 -118z m-3183 70 c15 -27 50 -85 77 -131 28 -46 46 -87 41 -91 -5 -5
-29 -20 -54 -33 -179 -99 -306 -172 -314 -179 -22 -20 -37 -3 -109 121 l-75
130 21 16 c30 21 370 213 379 214 4 0 19 -21 34 -47z m3860 -165 c38 -68 70
-128 72 -135 2 -7 -14 -23 -35 -36 -82 -52 -345 -197 -357 -197 -7 0 -20 15
-29 33 -9 17 -27 50 -40 72 -13 22 -38 66 -56 97 l-32 57 38 24 c21 13 81 48
133 77 52 30 124 71 160 91 36 21 68 38 71 39 3 0 37 -55 75 -122z m-1146
-174 c39 -69 70 -130 68 -135 -5 -14 -389 -229 -399 -223 -5 2 -25 35 -45 72
-21 37 -53 94 -72 126 l-36 60 23 15 c47 32 366 210 378 211 6 0 44 -57 83
-126z m-2472 -83 c39 -71 72 -131 72 -134 0 -4 -30 -23 -67 -43 -38 -21 -105
-59 -151 -86 -45 -26 -85 -48 -88 -48 -2 0 -22 -11 -44 -25 -22 -14 -44 -25
-49 -25 -13 0 -153 251 -147 265 2 6 35 28 73 49 37 20 122 68 188 106 66 38
125 69 130 69 6 0 43 -57 83 -128z m3140 2 c47 -83 69 -130 62 -137 -5 -5 -94
-58 -197 -117 -144 -82 -191 -104 -200 -95 -17 15 -143 237 -143 251 0 5 48
37 107 70 58 33 143 81 187 107 45 25 88 46 96 47 9 0 44 -49 88 -126z m671
-88 c39 -68 71 -130 71 -138 0 -8 -10 -19 -22 -25 -25 -12 -89 -48 -251 -140
-60 -34 -114 -62 -120 -62 -11 1 -146 230 -150 254 -2 11 78 61 208 131 50 27
110 61 134 77 25 15 48 28 52 28 4 0 39 -56 78 -125z m651 -51 c39 -69 69
-131 67 -137 -3 -7 -69 -49 -148 -94 -250 -141 -240 -137 -254 -121 -20 20
-146 250 -141 256 12 11 382 220 393 221 6 1 44 -56 83 -125z m-1806 -105 c38
-66 69 -127 70 -135 0 -9 -33 -35 -84 -63 -47 -27 -134 -76 -194 -110 -60 -33
-111 -61 -115 -61 -6 0 -22 25 -74 120 -17 30 -41 72 -54 93 -13 21 -23 43
-21 48 4 11 376 227 393 228 6 1 41 -53 79 -120z m-2470 -91 c42 -72 73 -135
69 -139 -23 -21 -388 -219 -397 -216 -15 6 -148 245 -144 258 3 9 375 227 390
228 3 1 40 -58 82 -131z m3122 35 c26 -49 58 -104 71 -123 12 -19 23 -41 23
-50 0 -9 -49 -42 -117 -80 -139 -78 -208 -116 -245 -138 -36 -21 -36 -21 -119
126 -51 88 -64 120 -55 129 12 13 377 223 388 223 3 0 28 -39 54 -87z m690
-120 c40 -70 71 -130 68 -134 -2 -4 -55 -35 -117 -70 -61 -34 -149 -84 -194
-110 -75 -44 -82 -46 -95 -31 -22 26 -138 232 -138 246 0 12 391 239 399 231
2 -3 37 -62 77 -132z m-3180 69 c11 -20 44 -79 72 -130 29 -50 52 -94 52 -97
0 -8 -382 -225 -398 -225 -8 0 -142 228 -150 256 -2 6 79 57 180 113 101 57
187 107 193 112 17 16 30 9 51 -29z m3835 -126 c65 -112 82 -156 59 -156 -5 0
-31 -13 -57 -28 -166 -99 -323 -183 -333 -177 -6 3 -23 32 -39 63 -16 31 -45
84 -65 116 -20 33 -36 67 -36 75 1 10 59 48 153 100 84 46 168 94 187 107 19
13 41 22 49 21 7 -1 44 -55 82 -121z m-2522 35 c12 -16 21 -31 21 -34 0 -2 24
-46 54 -98 30 -52 52 -97 50 -101 -5 -7 -390 -228 -398 -228 -7 0 -146 251
-146 264 0 6 75 53 168 105 92 52 176 100 187 107 30 20 42 17 64 -15z m-2454
-91 c120 -211 114 -198 96 -213 -17 -14 -376 -217 -385 -217 -8 0 -146 247
-146 261 1 16 367 228 389 226 8 -1 29 -27 46 -57z m3157 -27 c26 -49 59 -107
73 -130 l26 -42 -23 -15 c-27 -17 -380 -216 -384 -216 -5 0 -144 253 -144 264
0 12 367 225 390 225 9 1 34 -34 62 -86z m-2453 -119 c39 -69 71 -130 71 -134
0 -11 -390 -231 -399 -226 -5 3 -41 63 -81 133 -83 146 -88 125 47 199 45 25
124 69 175 99 51 30 98 54 104 55 6 0 43 -57 83 -126z m3142 1 c38 -66 68
-127 68 -135 0 -17 -377 -233 -394 -226 -16 6 -147 244 -143 258 5 14 379 229
392 225 5 -2 40 -57 77 -122z m660 -69 c38 -65 69 -124 69 -131 0 -7 -66 -50
-147 -96 -82 -45 -170 -96 -196 -112 -28 -17 -52 -26 -57 -21 -22 23 -149 259
-142 265 4 4 77 47 162 95 85 48 169 95 185 106 17 10 36 17 44 15 7 -1 45
-55 82 -121z m-3122 -34 c39 -68 69 -128 66 -132 -10 -17 -386 -222 -398 -217
-12 4 -147 239 -147 255 0 12 394 232 402 224 3 -4 38 -63 77 -130z m3790 -47
c39 -68 71 -128 71 -132 0 -10 -22 -23 -244 -148 -82 -46 -152 -82 -157 -80
-18 12 -149 259 -141 267 18 18 368 216 383 217 12 1 40 -39 88 -124z m-2474
-48 l74 -127 -37 -24 c-20 -12 -57 -34 -82 -48 -25 -14 -97 -55 -161 -92 -63
-36 -118 -66 -121 -66 -3 0 -25 33 -49 73 -23 39 -57 96 -75 126 -17 30 -30
60 -28 66 3 6 46 33 97 62 50 28 130 72 177 98 47 26 89 51 95 56 21 20 40 -1
110 -124z m-2522 26 c13 -21 40 -67 59 -103 20 -36 44 -79 54 -97 10 -17 16
-34 14 -36 -17 -15 -384 -217 -395 -217 -19 0 -158 251 -146 263 8 8 379 224
388 226 2 1 13 -16 26 -36z m3171 -51 c27 -48 60 -106 73 -128 18 -32 21 -43
11 -51 -7 -6 -83 -50 -168 -98 -85 -48 -169 -96 -187 -107 -25 -15 -34 -16
-43 -6 -18 21 -140 241 -140 252 0 13 368 225 390 225 9 1 36 -36 64 -87z
m686 -111 c38 -68 70 -129 70 -135 -1 -12 -361 -219 -389 -224 -13 -2 -35 30
-87 124 -38 70 -69 129 -69 133 0 8 388 231 397 228 4 -1 39 -58 78 -126z
m-3139 -6 c38 -66 69 -125 69 -131 0 -7 -46 -38 -102 -70 -57 -31 -145 -82
-197 -112 -51 -29 -97 -50 -101 -45 -19 19 -150 256 -145 261 18 19 382 221
394 219 7 -1 44 -56 82 -122z m3810 -81 c81 -142 81 -131 -11 -182 -30 -17
-111 -62 -180 -101 -68 -39 -129 -71 -136 -71 -10 0 -154 241 -154 258 0 4 55
39 123 77 67 38 156 88 197 111 41 23 78 40 82 38 4 -3 39 -61 79 -130z
m-3131 -20 c39 -70 69 -132 67 -138 -3 -6 -69 -48 -148 -93 -212 -119 -251
-139 -255 -128 -2 6 -35 64 -73 130 -37 66 -66 125 -64 130 4 10 381 224 395
225 3 0 39 -57 78 -126z m1316 -94 c54 -94 69 -128 60 -137 -6 -6 -54 -36
-106 -65 -52 -30 -136 -78 -186 -106 -50 -29 -94 -52 -96 -52 -9 0 -148 247
-148 261 1 16 368 228 389 226 8 -1 47 -58 87 -127z m-2461 -79 c36 -62 65
-119 65 -125 0 -13 -371 -226 -394 -226 -8 0 -33 35 -57 78 -23 42 -55 101
-71 130 l-29 52 38 23 c223 133 359 204 370 193 7 -6 42 -62 78 -125z m3134
13 c39 -69 71 -130 71 -135 0 -4 -19 -19 -42 -32 -24 -14 -111 -63 -194 -111
-83 -47 -155 -86 -160 -86 -9 0 -149 246 -149 263 0 9 371 224 391 226 6 1 43
-56 83 -125z m-2523 4 c85 -145 124 -222 117 -229 -9 -8 -149 -90 -253 -147
-36 -20 -78 -44 -95 -54 -16 -10 -35 -18 -41 -18 -11 0 -154 241 -154 259 0 5
48 36 108 69 59 33 145 82 192 110 47 27 88 50 93 51 4 1 19 -18 33 -41z
m3159 -30 c21 -40 54 -98 72 -128 18 -30 33 -58 33 -61 0 -6 -100 -65 -230
-137 -25 -13 -70 -40 -101 -58 -31 -19 -61 -34 -66 -34 -11 0 -148 239 -148
259 0 13 367 229 390 230 6 1 28 -32 50 -71z m-2467 -95 c108 -183 112 -191
96 -204 -19 -16 -377 -219 -386 -219 -9 0 -148 244 -148 261 0 8 62 48 137 89
74 41 159 89 187 107 28 17 56 32 62 32 7 1 30 -29 52 -66z m684 -108 c37 -66
68 -125 68 -132 0 -16 -391 -237 -401 -226 -16 17 -139 242 -139 254 0 13 33
34 240 149 52 29 104 59 115 66 11 7 27 12 35 11 8 -1 45 -56 82 -122z m647
-13 c30 -53 63 -110 74 -125 10 -15 17 -33 14 -40 -5 -13 -377 -227 -393 -227
-9 0 -146 231 -152 254 -2 10 369 232 393 235 6 0 34 -43 64 -97z m-2483 -39
c20 -38 52 -93 71 -124 18 -31 33 -61 33 -66 0 -8 -370 -224 -395 -230 -15 -4
-158 258 -147 269 16 16 376 218 389 218 7 0 29 -30 49 -67z m3181 -69 c40
-70 70 -130 68 -135 -4 -6 -110 -68 -285 -167 -19 -10 -51 -29 -71 -41 -34
-20 -37 -20 -51 -4 -9 10 -26 38 -38 61 -12 24 -39 73 -61 108 -21 35 -39 70
-39 77 1 13 365 225 390 226 9 1 43 -48 87 -125z m-2472 -86 l73 -128 -26 -18
c-77 -52 -375 -213 -382 -206 -4 5 -38 62 -76 128 -73 128 -74 135 -18 165 16
9 49 28 74 42 25 14 72 41 105 59 33 18 76 42 95 53 19 10 39 23 45 28 21 20
39 0 110 -123z m663 -72 c41 -71 70 -132 65 -137 -7 -7 -134 -80 -283 -162
-30 -16 -64 -36 -75 -44 -11 -7 -25 -13 -31 -13 -13 0 -157 246 -152 260 4 13
380 229 393 226 5 -1 43 -60 83 -130z m659 -64 c54 -96 68 -130 60 -139 -7 -6
-97 -60 -202 -118 -146 -83 -192 -104 -198 -94 -46 77 -137 245 -137 254 0 6
51 39 113 73 61 34 146 82 187 106 41 24 82 45 90 45 9 0 43 -49 87 -127z
m-2470 -56 c40 -70 71 -131 68 -136 -3 -4 -49 -33 -102 -63 -54 -30 -140 -78
-190 -106 -51 -29 -98 -51 -104 -49 -14 5 -149 235 -149 253 0 7 82 59 183
115 100 56 186 106 192 111 5 5 14 8 19 6 6 -2 43 -61 83 -131z m3138 8 c85
-152 81 -142 58 -151 -24 -9 -345 -192 -357 -204 -22 -20 -37 -5 -87 84 -29
50 -60 107 -71 125 -10 18 -18 38 -18 45 0 7 62 46 136 87 74 41 159 89 187
107 29 17 59 32 67 32 9 0 43 -50 85 -125z m-2474 -59 c38 -66 68 -127 69
-136 0 -9 -58 -48 -157 -104 -87 -48 -175 -99 -195 -112 l-38 -23 -23 37 c-56
89 -129 223 -125 232 4 13 379 230 392 227 5 -1 40 -56 77 -121z m678 -97 c59
-105 71 -134 60 -140 -77 -46 -385 -218 -391 -218 -3 0 -39 57 -78 127 -49 86
-69 132 -64 141 5 7 74 50 154 94 80 45 161 91 180 104 19 13 42 23 50 23 9 0
45 -54 89 -131z m631 -20 c115 -202 108 -176 55 -204 -11 -5 -93 -52 -183
-103 -89 -51 -169 -91 -176 -88 -12 5 -36 43 -104 167 -13 25 -28 49 -33 55
-24 25 -6 45 94 101 107 61 291 164 293 164 1 0 25 -42 54 -92z m630 -7 c0 -3
29 -57 65 -120 36 -63 65 -120 65 -126 0 -11 -361 -218 -389 -223 -11 -2 -33
28 -70 95 -30 54 -63 110 -73 125 -25 36 -23 42 15 61 33 17 77 41 256 145 92
53 131 66 131 43z m-2420 -149 c36 -64 66 -124 68 -133 4 -23 -390 -246 -401
-227 -4 7 -22 38 -40 68 -18 30 -49 85 -70 122 l-37 67 42 24 c241 139 345
196 358 196 9 0 42 -47 80 -117z m626 16 c13 -24 48 -83 76 -133 48 -85 49
-90 32 -103 -40 -28 -370 -212 -381 -212 -11 0 -153 240 -153 258 0 4 51 37
113 72 61 35 148 85 192 111 44 26 83 48 88 48 4 1 19 -18 33 -41z m715 -163
c37 -66 68 -125 68 -132 1 -13 -29 -32 -233 -149 -83 -46 -155 -83 -162 -80
-6 2 -25 28 -41 58 -17 29 -48 86 -71 125 l-40 73 26 19 c15 10 68 41 117 68
50 28 124 71 165 96 41 25 81 45 89 44 8 -1 45 -56 82 -122z m664 -77 c39 -68
70 -129 70 -137 0 -12 -368 -230 -390 -231 -12 0 -159 259 -151 267 10 11 381
221 391 222 6 1 42 -54 80 -121z m-1807 -128 c55 -97 69 -127 59 -136 -7 -6
-97 -59 -200 -117 l-188 -106 -33 52 c-45 71 -116 202 -116 214 0 5 42 33 93
61 50 29 139 79 197 111 58 33 108 56 111 53 4 -4 38 -63 77 -132z m673 -65
c38 -66 68 -126 66 -133 -1 -10 -378 -232 -393 -232 -2 0 -15 21 -30 48 -15
26 -49 84 -76 129 -27 46 -47 87 -43 92 3 6 34 25 68 44 128 70 243 135 277
156 19 11 41 20 49 19 8 -2 45 -57 82 -123z m668 -82 c65 -116 78 -153 52
-153 -5 0 -91 -47 -192 -105 -147 -85 -185 -103 -195 -93 -30 31 -145 251
-136 260 16 16 376 218 388 218 7 0 44 -57 83 -127z m-1150 -190 c39 -69 71
-130 71 -134 0 -4 -62 -42 -137 -85 -76 -43 -164 -92 -196 -111 -32 -18 -62
-31 -67 -28 -15 9 -153 256 -147 262 13 12 383 222 393 222 7 1 44 -56 83
-126z m679 -78 c59 -104 71 -131 60 -141 -7 -6 -69 -43 -138 -81 -69 -39 -143
-80 -165 -93 -22 -12 -44 -26 -49 -31 -25 -23 -45 -6 -93 79 -80 140 -97 172
-92 176 2 2 58 34 124 72 66 37 152 87 190 110 39 23 75 41 80 40 6 -1 43 -60
83 -131z m-479 -274 c58 -101 69 -127 59 -137 -7 -7 -96 -60 -198 -117 l-185
-105 -22 25 c-12 15 -27 38 -35 52 -7 14 -32 59 -55 99 -24 40 -43 78 -43 85
0 7 30 30 68 50 37 20 126 70 197 111 72 40 133 71 136 67 4 -3 39 -62 78
-130z"/>
<path d="M23740 2457 c0 -7 14 -26 30 -42 26 -25 32 -27 40 -15 5 8 10 27 10
43 0 25 -3 27 -40 27 -26 0 -40 -4 -40 -13z"/>
<path d="M31774 404 c-6 -2 -46 -8 -90 -12 l-79 -7 -8 -49 c-4 -27 -4 -53 1
-58 5 -5 32 -4 63 3 32 7 92 9 147 6 92 -5 93 -5 103 19 11 30 12 81 2 87 -13
8 -127 17 -139 11z"/>
<path d="M32460 400 c-25 -5 -64 -9 -88 -9 -36 -1 -44 -5 -52 -27 -14 -35 -12
-82 3 -87 6 -2 30 0 52 5 22 6 90 8 150 6 l110 -3 3 49 c2 27 0 52 -5 56 -13
13 -124 19 -173 10z"/>
<path d="M29700 271 c-87 -7 -193 -38 -187 -55 3 -10 206 -10 265 1 48 8 71
66 24 61 -9 0 -55 -4 -102 -7z"/>
</g>
</svg>
