<?xml version="1.0" standalone="no"?>
<!DOCTYPE svg PUBLIC "-//W3C//DTD SVG 20010904//EN"
 "http://www.w3.org/TR/2001/REC-SVG-20010904/DTD/svg10.dtd">
<svg version="1.0" xmlns="http://www.w3.org/2000/svg"
 width="3418.000000pt" height="3418.000000pt" viewBox="0 0 3418.000000 3418.000000"
 preserveAspectRatio="xMidYMid meet">

<g transform="translate(0.000000,3418.000000) scale(0.100000,-0.100000)"
fill="#000000" stroke="none">
<path d="M17185 31499 c-388 -7 -491 -14 -855 -61 -189 -24 -514 -84 -690
-128 -19 -5 -57 -14 -85 -21 -27 -6 -97 -25 -155 -41 -58 -17 -118 -34 -135
-38 -189 -52 -590 -194 -753 -266 -21 -9 -50 -22 -67 -29 -180 -75 -516 -243
-735 -368 -438 -250 -927 -607 -1285 -937 -33 -30 -177 -158 -320 -285 -142
-126 -326 -291 -409 -365 -124 -111 -358 -320 -556 -496 -19 -17 -87 -77 -150
-134 -63 -57 -131 -117 -150 -133 -19 -17 -73 -66 -120 -108 -146 -132 -573
-512 -615 -548 -22 -19 -80 -71 -130 -116 -49 -45 -142 -128 -205 -184 -63
-57 -151 -135 -195 -175 -44 -40 -98 -88 -120 -107 -22 -19 -148 -131 -280
-249 -132 -118 -253 -227 -270 -241 -29 -26 -116 -103 -340 -304 -62 -55 -165
-147 -230 -205 -65 -58 -168 -150 -230 -205 -112 -101 -274 -245 -654 -584
-113 -101 -246 -220 -295 -265 -49 -44 -110 -99 -137 -121 -40 -33 -397 -352
-534 -476 -22 -20 -132 -118 -245 -219 -949 -847 -1057 -950 -1341 -1280 -313
-365 -601 -771 -801 -1130 -14 -25 -42 -74 -63 -110 -104 -182 -274 -542 -375
-795 -29 -71 -56 -139 -61 -150 -4 -11 -19 -54 -33 -95 -14 -41 -38 -113 -54
-160 -29 -81 -61 -183 -82 -260 -5 -19 -20 -73 -34 -120 -26 -93 -70 -269 -85
-340 -85 -419 -107 -560 -141 -900 -47 -466 -38 -1119 21 -1570 35 -266 42
-309 85 -530 40 -203 64 -307 111 -480 60 -221 140 -478 155 -494 4 -6 8 -19
8 -31 0 -12 4 -25 8 -30 4 -6 14 -28 21 -50 7 -22 16 -49 21 -60 4 -11 35 -87
68 -170 57 -142 75 -183 151 -350 51 -110 174 -351 231 -450 13 -22 34 -60 48
-85 109 -196 296 -482 466 -710 181 -244 279 -360 656 -780 96 -108 191 -214
210 -236 41 -48 163 -184 235 -264 95 -104 290 -322 335 -375 25 -28 99 -112
165 -185 120 -134 251 -280 374 -420 36 -41 111 -124 166 -185 55 -61 168
-187 250 -280 137 -153 272 -305 505 -564 47 -52 101 -113 120 -135 19 -23
154 -174 300 -337 312 -349 559 -624 829 -928 36 -41 167 -188 291 -326 124
-139 349 -391 500 -560 151 -170 394 -442 540 -605 146 -163 353 -395 460
-515 107 -120 231 -260 276 -309 45 -50 180 -201 300 -336 423 -472 779 -801
1209 -1116 94 -69 349 -244 410 -281 323 -197 647 -371 895 -481 173 -76 512
-211 570 -227 14 -3 34 -10 45 -15 38 -17 279 -93 380 -120 542 -144 938 -216
1370 -249 77 -6 197 -16 268 -21 349 -27 976 2 1387 66 220 34 240 37 388 65
379 72 905 227 1260 370 12 5 32 13 45 18 12 5 43 18 69 30 26 12 50 21 52 21
3 0 37 15 78 33 40 19 98 45 128 58 61 27 368 181 445 224 534 297 1007 638
1449 1046 34 31 79 71 101 90 22 19 130 115 241 214 385 345 649 581 739 660
50 44 129 114 176 157 80 72 303 272 474 423 43 39 169 151 280 250 198 178
390 349 510 455 34 30 122 109 195 175 74 66 154 138 179 160 25 22 174 155
331 295 157 140 306 273 331 295 46 41 380 339 828 740 135 121 309 276 386
345 77 68 203 180 280 249 151 135 194 173 506 452 113 101 238 213 279 249
41 36 166 148 280 249 186 167 314 282 410 367 292 260 385 346 553 513 478
473 815 903 1152 1466 39 66 55 95 152 270 60 110 243 486 243 501 0 2 12 29
26 60 72 158 227 585 284 784 7 25 17 59 22 75 19 67 76 283 87 335 16 72 29
130 41 183 12 53 49 254 60 327 34 226 57 413 65 520 23 329 27 460 22 775 -5
324 -9 400 -38 665 -37 353 -103 708 -195 1060 -20 74 -39 146 -44 160 -4 14
-13 45 -20 70 -23 82 -100 315 -110 332 -6 10 -10 25 -10 33 0 8 -4 23 -9 33
-5 9 -24 55 -42 102 -17 47 -38 101 -46 120 -27 63 -36 85 -43 105 -5 11 -17
41 -29 67 -12 26 -21 51 -21 54 0 11 -236 487 -275 554 -21 36 -51 90 -68 120
-17 30 -45 79 -64 108 -18 29 -33 55 -33 58 0 14 -295 448 -385 568 -171 228
-363 457 -635 756 -52 58 -129 143 -170 190 -41 47 -100 112 -132 145 -31 33
-71 79 -90 101 -18 23 -143 164 -278 315 -374 417 -1118 1249 -1172 1311 -33
38 -146 165 -409 457 -145 162 -282 315 -304 341 -22 26 -150 170 -285 321
-135 150 -326 363 -424 473 -98 111 -214 239 -256 286 -42 47 -97 108 -121
136 -41 48 -401 452 -480 539 -62 69 -562 627 -609 681 -37 43 -364 409 -476
534 -17 19 -116 130 -219 245 -103 116 -204 228 -224 250 -20 22 -108 121
-195 220 -188 213 -604 630 -766 769 -173 148 -491 398 -561 441 -8 6 -87 58
-175 116 -87 58 -188 124 -224 146 -220 138 -614 344 -877 459 -18 8 -48 20
-65 28 -74 32 -217 89 -283 112 -38 14 -79 29 -90 34 -26 12 -321 111 -362
122 -40 10 -66 17 -203 56 -157 45 -294 77 -517 122 -173 34 -214 41 -473 75
-170 22 -306 34 -605 53 -60 4 -267 4 -460 1z m-3103 -6555 c35 -9 110 -34
168 -56 144 -54 305 -114 620 -230 30 -11 66 -24 80 -30 14 -5 57 -21 95 -35
39 -13 79 -28 90 -33 11 -5 90 -34 175 -65 85 -31 164 -60 175 -65 11 -4 65
-25 120 -45 55 -20 134 -49 175 -65 41 -16 120 -45 175 -65 55 -20 111 -41
125 -47 41 -17 58 -24 220 -83 85 -31 209 -77 275 -102 66 -25 145 -54 175
-65 30 -11 64 -24 75 -28 25 -11 230 -87 356 -134 52 -19 145 -54 205 -76 134
-51 331 -125 404 -152 30 -11 64 -24 75 -28 11 -5 101 -39 200 -75 99 -37 243
-91 320 -120 157 -60 339 -128 495 -187 58 -22 132 -50 165 -63 33 -13 98 -38
145 -55 102 -38 257 -98 285 -110 11 -4 47 -18 80 -30 33 -12 98 -37 145 -55
47 -18 111 -43 143 -55 64 -25 77 -37 50 -46 -36 -12 -178 -65 -198 -74 -18
-7 -57 -22 -275 -102 -30 -11 -64 -24 -75 -29 -59 -25 -482 -181 -495 -181 -8
-1 -29 2 -45 6 -27 6 -32 3 -41 -21 -10 -25 -31 -35 -195 -96 -101 -38 -260
-97 -354 -132 -93 -35 -240 -89 -325 -120 -85 -31 -164 -60 -175 -65 -11 -5
-51 -20 -90 -34 -38 -13 -97 -34 -129 -47 -49 -18 -72 -21 -130 -16 -118 10
-163 29 -275 118 -154 122 -376 263 -566 359 -93 48 -190 95 -215 104 -25 10
-58 24 -75 31 -29 13 -182 67 -275 98 -117 38 -392 99 -555 123 -244 35 -425
40 -1140 33 -1651 -16 -1889 -23 -2077 -55 -83 -14 -127 -24 -248 -54 -85 -22
-255 -87 -375 -144 -223 -107 -432 -250 -616 -424 l-96 -91 -119 -40 c-143
-47 -195 -55 -294 -42 -87 12 -500 145 -655 211 -11 5 -101 38 -200 75 -99 37
-214 79 -255 95 -41 15 -78 26 -82 23 -10 -6 -9 -1197 1 -1423 9 -199 6 -188
109 -322 90 -116 126 -189 126 -254 0 -43 -6 -61 -42 -116 -24 -36 -52 -74
-63 -84 -23 -20 -23 -41 1 -289 5 -55 14 -158 20 -230 6 -71 15 -177 20 -235
5 -58 14 -168 20 -245 6 -77 15 -178 20 -225 9 -78 41 -438 60 -690 5 -58 13
-157 19 -220 13 -139 8 -172 -31 -205 l-30 -25 -349 0 c-192 0 -352 1 -356 3
-11 3 -8 106 6 267 7 74 16 185 21 245 5 61 13 162 19 225 6 63 15 171 21 240
5 69 14 168 20 220 5 52 14 158 20 235 6 77 15 190 20 250 26 285 30 339 40
465 6 74 13 147 15 161 3 21 -8 42 -47 90 -93 116 -100 166 -38 285 22 43 48
87 58 98 26 29 85 116 99 146 31 64 33 117 33 857 0 714 -1 754 -19 795 -31
74 -79 106 -231 158 -52 18 -153 55 -225 82 -71 28 -152 58 -180 68 -228 85
-258 107 -258 186 0 49 25 85 71 103 15 5 70 26 123 45 52 19 145 54 205 76
60 23 145 55 189 72 44 16 107 40 140 53 33 13 85 32 115 43 60 22 261 97 380
142 115 43 294 111 520 195 375 140 445 167 465 175 11 5 54 21 95 35 41 15
120 44 175 65 55 21 156 59 225 85 69 26 159 59 200 75 185 70 328 123 495
185 99 36 189 70 200 75 18 8 112 43 275 102 30 11 64 24 75 28 11 5 65 25
120 45 55 20 134 50 175 65 215 81 334 125 525 195 116 42 219 81 230 85 11 5
90 34 175 65 85 31 164 60 175 65 11 5 65 25 120 45 55 20 109 40 120 45 54
23 88 28 182 29 63 1 125 -5 165 -15z m1273 -2617 c55 -10 134 -22 175 -28
187 -29 493 -116 725 -206 86 -34 357 -162 420 -200 128 -75 394 -259 492
-339 121 -99 377 -349 474 -464 123 -146 270 -350 354 -495 62 -106 77 -134
135 -253 90 -183 195 -454 230 -592 4 -19 16 -64 25 -100 8 -36 20 -81 25
-100 47 -181 80 -492 80 -768 0 -340 -35 -620 -117 -942 -22 -87 -92 -307
-112 -355 -5 -11 -21 -51 -37 -90 -220 -551 -599 -1054 -1089 -1445 -82 -65
-328 -240 -338 -240 -2 0 -45 -25 -95 -55 -168 -101 -414 -214 -637 -292 -110
-39 -103 -37 -300 -88 -126 -32 -177 -43 -380 -75 -87 -14 -313 -30 -426 -30
-74 0 -98 -3 -102 -14 -6 -16 14 -36 2112 -2161 727 -737 1348 -1361 1380
-1388 219 -185 559 -82 656 198 21 58 31 290 40 880 3 204 10 456 15 562 6
105 10 263 10 350 0 87 4 246 10 353 5 107 17 411 25 675 8 264 20 568 25 675
10 195 34 765 51 1210 15 431 28 753 38 985 6 127 15 354 21 505 6 151 13 304
14 340 2 36 10 272 19 525 9 253 21 548 27 655 6 107 10 267 10 355 0 88 4
234 10 325 16 282 17 928 2 975 -33 98 -95 199 -153 251 -98 86 -235 133 -336
114 -31 -5 -59 -7 -62 -4 -7 6 -6 482 0 489 5 4 125 -26 219 -57 290 -92 561
-330 682 -596 66 -146 78 -223 88 -587 6 -181 14 -433 20 -560 6 -126 10 -291
10 -365 0 -74 5 -229 10 -345 6 -115 17 -394 25 -620 16 -436 58 -1514 75
-1905 6 -129 15 -352 20 -495 5 -143 11 -291 14 -330 3 -38 11 -212 16 -385 6
-173 15 -391 20 -485 5 -93 16 -390 25 -660 8 -269 20 -580 25 -690 6 -110 10
-266 10 -346 0 -81 4 -238 10 -350 5 -112 12 -350 14 -529 3 -179 8 -451 12
-605 7 -277 0 -407 -27 -523 -64 -271 -189 -507 -364 -691 -234 -245 -508
-393 -850 -457 -135 -26 -388 -23 -523 5 -252 53 -465 154 -662 315 -47 38
-224 207 -395 376 -391 386 -1858 1835 -2623 2590 -597 590 -677 674 -753 795
-216 342 -239 762 -62 1135 155 325 442 556 793 639 89 21 139 26 410 41 364
20 690 108 995 269 232 122 409 253 601 445 293 293 457 552 590 929 27 78 68
221 78 277 55 285 69 547 41 795 -8 72 -16 139 -19 150 -2 11 -10 47 -16 80
-57 279 -192 598 -365 859 -125 189 -347 431 -520 567 -148 116 -343 239 -461
290 -27 12 -69 31 -94 42 -207 92 -541 173 -790 191 -142 11 -480 17 -1512 27
-1132 11 -1156 10 -1323 -33 -388 -99 -716 -369 -881 -724 -85 -185 -104 -254
-128 -477 -11 -100 -17 -121 -37 -144 -48 -52 -57 -53 -491 -53 -238 0 -409 4
-418 10 -22 14 -20 304 4 475 63 456 259 882 562 1220 164 183 308 306 519
439 211 134 537 263 775 305 36 7 88 16 115 21 111 22 279 29 665 31 223 1
542 5 710 9 168 4 607 6 975 5 575 -1 684 -4 770 -18z m8495 -7 c112 -25 220
-112 272 -218 l33 -67 0 -840 0 -840 -27 -55 c-60 -123 -128 -192 -241 -240
-160 -70 -314 -67 -462 8 -63 32 -172 141 -208 210 -143 272 -18 591 322 822
82 56 289 161 362 184 153 47 207 45 -1511 46 -1762 0 -1638 -4 -1761 61 -72
39 -164 135 -201 211 -90 186 -59 416 80 585 41 51 110 95 189 122 57 19 97
20 1583 20 978 0 1541 -3 1570 -9z m45 -5470 c173 -85 274 -274 262 -490 -11
-214 -141 -383 -346 -449 -64 -21 -72 -21 -1567 -21 l-1503 0 -58 21 c-143 54
-228 150 -284 325 -67 208 15 444 201 571 40 27 131 65 185 76 11 3 700 4
1530 3 l1510 -1 70 -35z m-149 -4060 c173 -31 319 -133 382 -268 l27 -57 0
-850 c0 -939 5 -870 -67 -977 -43 -65 -97 -105 -181 -137 l-58 -21 -1528 0
c-1520 0 -1528 0 -1592 21 -121 39 -205 102 -271 203 -162 250 -68 617 189
739 l68 32 1638 3 c900 1 1637 6 1637 10 0 4 -34 18 -76 31 -102 32 -301 133
-399 203 -128 90 -253 230 -302 338 -47 105 -64 229 -45 332 36 189 196 351
390 393 73 17 114 17 188 5z"/>
</g>
</svg>
